#!OML:ASF H:\GeneralSubjects\Female5\Project 1\Capture day 1\Session 1\Female5.ASF
:FULLY-SPECIFIED
:DEGREES
699
root -31.9587 15.8105 9.94531 -529.797 -33.8172 -182.89
lowerback 14.9655 4.46474 9.87964
upperback -13.6257 5.65308 -10.3632
thorax -22.8093 -1.35614 -20.6218
lowerneck -5.91037 -8.85753 -5.78084
upperneck 28.2005 -19.4867 15.3475
head 12.5404 -9.01543 3.8728
rclavicle -8.26944e-014 4.77083e-014
rhumerus -66.8144 -11.5841 -84.6932
rradius 33.0297
rwrist -10.0493
rhand -21.4308 -16.9339
rfingers 7.12502
rthumb 4.95834 -46.8559
lclavicle -8.26944e-014 4.77083e-014
lhumerus -42.2102 -39.2877 76.5889
lradius 38.4719
lwrist 5.10181
lhand -26.7331 32.8101
lfingers 7.12502
lthumb -0.162306 62.7897
rfemur -25.9787 14.8803 26.478
rtibia 2.84447
rfoot -33.7492 -28.2578
rtoes -9.25682
lfemur 10.6724 -17.3006 -40.0151
ltibia 1.06639
lfoot -54.45 -2.99937
ltoes -25.5904
700
root -32.1007 15.7784 9.7877 -529.619 -33.1361 -183.03
lowerback 14.4711 4.59785 9.64988
upperback -13.7518 5.64203 -10.5489
thorax -22.6443 -1.35232 -20.6569
lowerneck -6.04933 -8.81259 -5.66117
upperneck 28.3781 -19.5889 15.4687
head 12.6655 -9.04561 3.87085
rclavicle -3.65764e-014 9.54166e-015
rhumerus -67.3553 -11.8722 -84.7666
rradius 32.7327
rwrist -11.1808
rhand -22.6104 -15.9925
rfingers 7.12502
rthumb 3.81936 -45.938
lclavicle -3.65764e-014 9.54166e-015
lhumerus -43.7456 -40.0663 78.5523
lradius 38.7024
lwrist 4.93672
lhand -29.0011 32.2609
lfingers 7.12502
lthumb -2.35275 62.2276
rfemur -25.9731 13.2691 27.3418
rtibia 4.50237
rfoot -30.8678 -25.7903
rtoes -9.06296
lfemur 10.9897 -15.7114 -39.9923
ltibia 1.37087
lfoot -52.5985 -8.78519
ltoes -19.923
701
root -32.2403 15.7383 9.61613 -529.572 -32.4517 -182.877
lowerback 13.8679 4.75404 9.68717
upperback -13.9181 5.74739 -10.6957
thorax -22.3773 -1.32178 -20.8264
lowerneck -6.10606 -8.73936 -5.61862
upperneck 28.4793 -19.6681 15.7214
head 12.7656 -9.07107 3.93956
rclavicle -1.18476e-013 6.04305e-014
rhumerus -68.3277 -12.0347 -84.6741
rradius 33.0009
rwrist -11.2273
rhand -22.3911 -16.6427
rfingers 7.12502
rthumb 4.0311 -46.5844
lclavicle -1.18476e-013 6.04305e-014
lhumerus -45.6518 -41.1365 80.7341
lradius 39.26
lwrist 5.08538
lhand -27.9066 31.9407
lfingers 7.12502
lthumb -1.29569 61.9165
rfemur -25.985 12.9799 28.1337
rtibia 5.14565
rfoot -27.2278 -26.8915
rtoes -11.4406
lfemur 11.3651 -14.2085 -39.6859
ltibia 1.77722
lfoot -51.2116 -9.18103
ltoes -21.5623
702
root -32.3808 15.7062 9.43823 -530.015 -32.0188 -182.534
lowerback 13.6181 4.75442 9.93735
upperback -13.9697 5.77504 -10.7165
thorax -22.2307 -1.34348 -20.9872
lowerneck -6.0476 -8.64913 -5.47833
upperneck 28.3994 -19.628 15.8808
head 12.7225 -9.04881 3.98411
rclavicle 7.79236e-014 -4.77083e-014
rhumerus -69.3454 -11.8425 -84.9035
rradius 33.6706
rwrist -11.9256
rhand -22.4819 -18.953
rfingers 7.12502
rthumb 3.94338 -48.8962
lclavicle 7.79236e-014 -4.77083e-014
lhumerus -47.6293 -42.0195 82.9701
lradius 39.8265
lwrist 5.07915
lhand -27.1063 31.8167
lfingers 7.12502
lthumb -0.522712 61.7958
rfemur -25.7702 12.0759 28.9843
rtibia 6.05225
rfoot -23.7974 -27.4612
rtoes -11.4644
lfemur 12.1349 -13.2694 -39.4331
ltibia 2.43843
lfoot -50.4115 -10.5118
ltoes -20.5059
703
root -32.5232 15.6843 9.25811 -529.686 -31.3738 -183.266
lowerback 13.1946 4.92183 9.14163
upperback -14.0373 5.63636 -10.9759
thorax -22.1394 -1.31958 -20.7188
lowerneck -5.97103 -8.54702 -5.41702
upperneck 28.2207 -19.5801 16.1823
head 12.6615 -9.02258 4.09648
rclavicle -1.32788e-013 -8.90555e-014
rhumerus -68.9991 -13.4154 -82.4902
rradius 30.5115
rwrist -9.83804
rhand -22.2884 -18.5934
rfingers 7.12502
rthumb 4.1303 -48.5331
lclavicle -1.32788e-013 -8.90555e-014
lhumerus -49.36 -42.3361 85.0123
lradius 40.0916
lwrist 4.74681
lhand -26.9808 31.9018
lfingers 7.12502
lthumb -0.40158 61.8812
rfemur -25.5752 8.90863 29.2745
rtibia 7.22239
rfoot -21.2097 -24.1335
rtoes -4.93061
lfemur 12.274 -11.3689 -39.811
ltibia 3.51573
lfoot -48.4278 -14.5132
ltoes -16.6113
704
root -32.6588 15.6727 9.07848 -529.81 -30.837 -182.877
lowerback 12.7009 4.97657 9.40053
upperback -14.2189 5.71842 -10.9531
thorax -21.9713 -1.32165 -20.8163
lowerneck -5.83984 -8.4028 -5.57303
upperneck 28.0485 -19.4838 16.6037
head 12.6231 -8.99164 4.30176
rclavicle -2.38542e-015 9.54166e-015
rhumerus -69.5272 -13.3739 -82.1029
rradius 30.4404
rwrist -10.1171
rhand -22.1031 -18.8676
rfingers 7.12502
rthumb 4.30925 -48.8038
lclavicle -2.38542e-015 9.54166e-015
lhumerus -50.8706 -41.9871 86.6756
lradius 40.1798
lwrist 4.11096
lhand -26.8668 31.5472
lfingers 7.12502
lthumb -0.291469 61.5267
rfemur -25.4426 8.6514 29.8222
rtibia 8.49873
rfoot -20.2019 -22.9839
rtoes 0.670435
lfemur 12.2261 -9.66628 -39.0728
ltibia 4.78598
lfoot -46.7799 -16.6475
ltoes -15.1005
705
root -32.7921 15.6715 8.89235 -530.139 -30.3189 -182.183
lowerback 12.3039 5.04315 10.1235
upperback -14.4246 5.94582 -10.9572
thorax -21.7933 -1.3489 -21.3139
lowerneck -5.80286 -8.32195 -5.71425
upperneck 28.064 -19.5389 16.9716
head 12.6994 -9.02545 4.45509
rclavicle 6.12257e-014 3.18055e-015
rhumerus -70.0595 -13.1568 -82.3555
rradius 30.411
rwrist -11.0871
rhand -23.5182 -18.8114
rfingers 7.12502
rthumb 2.9427 -48.7709
lclavicle 6.12257e-014 3.18055e-015
lhumerus -52.6657 -41.9763 88.3536
lradius 40.4748
lwrist 3.97439
lhand -26.3483 30.7382
lfingers 7.12502
lthumb 0.209339 60.7179
rfemur -25.3431 8.86462 30.9657
rtibia 9.29291
rfoot -15.8943 -24.5268
rtoes -4.75863
lfemur 12.0457 -7.33141 -37.65
ltibia 6.27789
lfoot -44.7153 -16.1231
ltoes -16.5677
